<svg width="1201" height="304" viewBox="0 0 1201 304" fill="none" xmlns="http://www.w3.org/2000/svg">
<path d="M674 9H668V295H674V9Z" fill="#2B286D"/>
<path d="M1101.08 131.511H1099.89H1086.42H1085.6L1085.44 130.712C1084.67 126.926 1083.32 123.626 1081.41 120.795L1081.4 120.788C1079.51 117.937 1077.21 115.549 1074.49 113.618L1074.48 113.614L1074.48 113.609C1071.78 111.638 1068.79 110.157 1065.49 109.169C1062.19 108.178 1058.73 107.681 1055.13 107.681C1048.58 107.681 1042.66 109.345 1037.36 112.665C1032.11 115.976 1027.9 120.866 1024.75 127.39C1021.65 133.888 1020.07 141.912 1020.07 151.5C1020.07 161.088 1021.65 169.111 1024.75 175.61C1027.9 182.133 1032.11 187.024 1037.36 190.335C1042.66 193.655 1048.58 195.319 1055.13 195.319C1058.73 195.319 1062.19 194.822 1065.49 193.831C1068.79 192.842 1071.79 191.378 1074.48 189.442C1077.21 187.473 1079.51 185.065 1081.4 182.212L1081.4 182.21C1083.32 179.339 1084.67 176.036 1085.44 172.287L1085.6 171.489H1086.42H1099.89H1101.08L1100.87 172.663C1099.84 178.49 1097.96 183.725 1095.21 188.358C1092.47 192.977 1089.06 196.914 1084.98 200.163L1084.97 200.166C1080.9 203.374 1076.32 205.815 1071.25 207.49C1066.22 209.166 1060.84 210 1055.13 210C1045.48 210 1036.85 207.623 1029.29 202.849C1021.73 198.077 1015.8 191.299 1011.49 182.55C1007.17 173.785 1005.03 163.425 1005.03 151.5C1005.03 139.575 1007.17 129.215 1011.49 120.45C1015.8 111.701 1021.73 104.923 1029.29 100.151C1036.85 95.377 1045.48 93 1055.13 93C1060.84 93 1066.22 93.8343 1071.25 95.5103C1071.25 95.5105 1071.26 95.5107 1071.26 95.5108L1070.94 96.4596C1075.9 98.0993 1080.37 100.504 1084.36 103.674L1101.08 131.511ZM1101.08 131.511L1100.87 130.338C1099.84 124.476 1097.96 119.24 1095.21 114.642C1092.47 110.023 1089.06 106.103 1084.98 102.891L1101.08 131.511ZM722 207.47V208.47H723H736.47H737.47V207.47V164.743H760.803C761.563 164.743 762.311 164.732 763.049 164.71L786.21 207.942L786.493 208.47H787.091H802.734H804.417L803.612 206.991L779.041 161.856C780.25 161.397 781.404 160.883 782.501 160.313L782.506 160.31C788.209 157.31 792.473 153.162 795.255 147.866C798.02 142.601 799.389 136.589 799.389 129.856C799.389 123.121 798.02 117.075 795.257 111.741C792.477 106.372 788.195 102.168 782.456 99.1297C776.69 96.0411 769.381 94.5304 760.586 94.5304H723H722V95.5304V207.47ZM760.368 150.5H737.47V108.555H760.151C766.072 108.555 770.733 109.473 774.2 111.234L774.2 111.234L774.207 111.238C777.689 112.972 780.182 115.41 781.742 118.549C783.327 121.738 784.136 125.498 784.136 129.856C784.136 134.214 783.326 137.913 781.748 140.986L781.746 140.99C780.229 143.976 777.761 146.308 774.276 147.974L774.273 147.976C770.836 149.636 766.222 150.5 760.368 150.5ZM819.834 207.47V208.47H820.834H888.836H889.836V207.47V195.445V194.445H888.836H835.304V158.403H884.491H885.491V157.403V145.378V144.378H884.491H835.304V108.555H887.967H888.967V107.555V95.5304V94.5304H887.967H820.834H819.834V95.5304V207.47ZM916.808 208.47H917.516L917.751 207.802L928.699 176.768H972.268L983.215 207.802L983.451 208.47H984.158H998.28H999.71L999.22 207.127L958.375 95.1876L958.135 94.5304H957.436H943.531H942.831L942.592 95.1876L901.747 207.127L901.257 208.47H902.686H916.808ZM950.483 115.014L967.32 162.743H933.646L950.483 115.014ZM1114.57 107.555V108.555H1115.57H1149.55V207.47V208.47H1150.55H1164.02H1165.02V207.47V108.555H1199H1200V107.555V95.5304V94.5304H1199H1115.57H1114.57V95.5304V107.555Z" fill="#2B286D" stroke="#2B286D" stroke-width="2"/>
<path d="M275.746 137.687C279.499 144.188 286.439 148.565 295.654 148.565C304.412 148.565 307.486 144.31 307.486 140.408C307.486 133.195 298.613 131.422 287.578 127.167C276.202 122.913 268.353 116.53 268.353 103.289C268.353 88.5122 281.096 80 295.654 80C309.076 80 317.27 86.6202 322.159 93.7109L310.442 103.404C307.598 99.2683 302.935 96.3136 296.107 96.3136C289.621 96.3136 285.641 99.1499 285.641 103.052C285.641 109.909 291.897 110.146 304.75 115.348C319.085 121.021 325 127.997 325 139.819C325 154.359 315.67 165 295.535 165C278.471 165 267.893 156.725 263 146.794L275.746 137.687Z" fill="#2B286D"/>
<path d="M336 82H353.421V112.469H387.579V82H405V164H387.579V128.94H353.421V164H336V82Z" fill="#2B286D"/>
<path d="M421.003 82H474.219V98.4714H438.219V113.882H471.869V129.999H438.219V147.529H475V164H421V82H421.003Z" fill="#2B286D"/>
<path d="M488 82H519.537C532.174 82 542.192 90.8248 542.192 102.94C542.192 110.825 538.435 117.06 532.059 119.411C542.534 121.294 548 129.529 548 139.765C548 153.646 537.752 164 523.862 164H488V82ZM516.69 114.706C521.699 114.706 525.229 111.058 525.229 105.999C525.229 101.175 521.699 97.5276 516.805 97.5276H505.193V114.706H516.69ZM520.335 148.355C526.255 148.355 530.584 143.999 530.584 138.354C530.584 132.824 526.37 128.708 520.224 128.708H505.197V148.355H520.335Z" fill="#2B286D"/>
<path d="M584.717 82H600.283L633 164H614.368L609.029 150.234H575.971L570.632 164H552L584.717 82ZM604.031 135.764L592.556 105.999L580.969 135.764H604.031Z" fill="#2B286D"/>
<path d="M275.031 194.441H263V190H292V194.441H279.969V233H275.031V194.441Z" fill="#2B286D"/>
<path d="M289 216.685C289 206.574 295.918 200 305.141 200C314.107 200 320 206.947 320 215.569C320 215.569 320 216.624 319.937 217.553H293.741C293.996 224.439 298.481 228.843 305.27 228.843C309.948 228.843 312.507 227.229 315.2 224.503L318.337 227.48C314.3 231.82 309.948 233 305.27 233C295.663 233 289 226.673 289 216.936V216.685ZM314.941 213.521C314.941 208.497 310.585 204.279 305.141 204.279C299.248 204.279 294.381 208.436 294.059 213.521H314.941Z" fill="#2B286D"/>
<path d="M325 190H329V233H325V190Z" fill="#2B286D"/>
<path d="M357 190H361.884V207.954H386.116V190H391V233H386.116V212.395H361.884V233H357V190Z" fill="#2B286D"/>
<path d="M411.062 200C417.297 200 420.761 202.905 422.338 205.562V200.929H427V232.071H422.338V227.438C420.765 230.095 417.297 233 411.062 233C402.179 233 395 226.019 395 216.505C395 206.984 402.182 200 411.062 200ZM411.062 228.731C417.866 228.731 422.903 223.479 422.903 216.498C422.903 209.517 417.866 204.262 411.062 204.262C404.51 204.262 399.662 209.514 399.662 216.498C399.662 223.479 404.513 228.731 411.062 228.731Z" fill="#2B286D"/>
<path d="M435.221 220.692C437.175 225.849 441.337 228.526 446.255 228.526C452.181 228.526 455.079 225.295 455.079 221.191C455.079 216.095 451.485 214.291 445.372 211.557C438.691 208.574 433.774 205.9 433.774 199.065C433.774 192.661 439.07 188 446.193 188C451.992 188 455.775 190.796 458.17 195.087L454.073 197.387C452.495 194.404 450.166 192.478 446.131 192.478C442.096 192.478 438.691 195.151 438.691 198.943C438.691 203.291 442.409 205.034 447.705 207.334C455.775 210.813 460 213.799 460 221.13C460 227.843 455.21 233 446.193 233C439.26 233 433.522 229.457 431 222.621L435.221 220.692Z" fill="#2B286D"/>
<path d="M464.003 190H468.697V207.149C470.281 203.817 473.705 201.413 478.523 201.413C485.626 201.413 490 206.161 490 213.134V232.997H485.307V214.122C485.307 208.939 482.326 205.672 477.38 205.672C472.308 205.672 468.693 209.189 468.693 214.432V233H464V190H464.003Z" fill="#2B286D"/>
<path d="M512 200C521.389 200 529 206.982 529 216.502C529 226.018 521.389 233 512 233C502.611 233 495 226.018 495 216.502C495.003 206.986 502.614 200 512 200ZM512 228.737C519.104 228.737 524.305 223.484 524.305 216.502C524.305 209.519 519.104 204.263 512 204.263C504.896 204.263 499.695 209.516 499.695 216.502C499.695 223.484 504.896 228.737 512 228.737Z" fill="#2B286D"/>
<path d="M532 201.499H536.699V206.81C538.16 203.435 541.269 201 545.715 201C550.285 201 553.523 203.374 555.112 207.247C556.955 203.374 560.509 201 565.332 201C571.936 201 576 205.809 576 212.872V232.993H571.301V213.873C571.301 208.623 568.636 205.314 564.062 205.314C559.554 205.314 556.192 208.876 556.192 214.187V232.997H551.493V213.877C551.493 208.627 548.89 205.317 544.382 205.317C540.003 205.317 536.699 208.88 536.699 214.191V233H532V201.499Z" fill="#2B286D"/>
<path d="M581 216.685C581 206.574 587.695 200 596.62 200C605.298 200 611 206.947 611 215.569C611 215.569 611 216.624 610.939 217.553H585.588C585.835 224.439 590.176 228.843 596.745 228.843C601.272 228.843 603.749 227.229 606.355 224.503L609.391 227.48C605.484 231.82 601.272 233 596.745 233C587.448 233 581 226.673 581 216.936V216.685ZM606.104 213.521C606.104 208.497 601.889 204.279 596.62 204.279C590.918 204.279 586.208 208.436 585.896 213.521H606.104Z" fill="#2B286D"/>
<path d="M616.003 201.499H620.558V206.811C622.095 203.436 625.418 201 630.093 201C630.769 201 631.569 201.061 632 201.126V206.128C631.26 205.94 630.214 205.813 628.922 205.813C624.123 205.813 620.554 209.377 620.554 214.689V233H616V201.499H616.003Z" fill="#2B286D"/>
<path d="M184.144 101.5H209C209 45.4434 162.213 0 104.5 0C46.7866 0 0 45.4434 0 101.5C0 157.557 46.7866 203 104.5 203V178.854C60.5146 178.854 24.8565 144.223 24.8565 101.5C24.8565 58.7774 60.5146 24.1462 104.5 24.1462C148.485 24.1462 184.144 58.7774 184.144 101.5Z" fill="#2BB99B"/>
<path d="M24.8565 202.5H0C0 258.557 46.7866 304 104.5 304C162.213 304 209 258.557 209 202.5C209 146.443 162.213 101 104.5 101V125.146C148.485 125.146 184.144 159.777 184.144 202.5C184.144 245.223 148.485 279.854 104.5 279.854C60.5146 279.854 24.8565 245.223 24.8565 202.5Z" fill="#EA3E85"/>
<path d="M438 148.143V145.095H438.358V147.815H439.733V148.143H438Z" fill="black"/>
<path d="M441.142 148.19C440.942 148.19 440.766 148.141 440.615 148.043C440.465 147.945 440.348 147.808 440.263 147.631C440.179 147.454 440.137 147.248 440.137 147.012C440.137 146.774 440.179 146.566 440.263 146.388C440.348 146.211 440.465 146.073 440.615 145.975C440.766 145.876 440.942 145.827 441.142 145.827C441.343 145.827 441.518 145.876 441.668 145.975C441.819 146.073 441.937 146.211 442.02 146.388C442.105 146.566 442.147 146.774 442.147 147.012C442.147 147.248 442.105 147.454 442.02 147.631C441.937 147.808 441.819 147.945 441.668 148.043C441.518 148.141 441.343 148.19 441.142 148.19ZM441.142 147.875C441.294 147.875 441.42 147.835 441.518 147.754C441.616 147.674 441.689 147.568 441.736 147.437C441.783 147.307 441.807 147.165 441.807 147.012C441.807 146.859 441.783 146.717 441.736 146.585C441.689 146.453 441.616 146.346 441.518 146.265C441.42 146.184 441.294 146.143 441.142 146.143C440.99 146.143 440.865 146.184 440.767 146.265C440.669 146.346 440.596 146.453 440.549 146.585C440.502 146.717 440.478 146.859 440.478 147.012C440.478 147.165 440.502 147.307 440.549 147.437C440.596 147.568 440.669 147.674 440.767 147.754C440.865 147.835 440.99 147.875 441.142 147.875Z" fill="black"/>
<path d="M442.668 148.143V145.857H442.997V146.202H443.02C443.06 146.089 443.134 145.998 443.24 145.927C443.345 145.857 443.465 145.821 443.598 145.821C443.623 145.821 443.654 145.822 443.692 145.823C443.729 145.824 443.757 145.825 443.777 145.827V146.185C443.765 146.182 443.739 146.177 443.697 146.171C443.657 146.164 443.614 146.161 443.569 146.161C443.461 146.161 443.365 146.184 443.28 146.231C443.196 146.276 443.13 146.34 443.081 146.421C443.033 146.501 443.008 146.593 443.008 146.696V148.143H442.668Z" fill="black"/>
<path d="M445.043 148.19C444.829 148.19 444.645 148.142 444.49 148.045C444.336 147.946 444.217 147.81 444.133 147.634C444.051 147.457 444.009 147.252 444.009 147.018C444.009 146.784 444.051 146.577 444.133 146.399C444.217 146.219 444.334 146.079 444.483 145.979C444.633 145.878 444.808 145.827 445.009 145.827C445.124 145.827 445.238 145.847 445.351 145.887C445.463 145.927 445.566 145.991 445.658 146.08C445.751 146.169 445.824 146.286 445.879 146.432C445.934 146.577 445.962 146.757 445.962 146.97V147.119H444.252V146.815H445.615C445.615 146.687 445.59 146.571 445.54 146.47C445.491 146.369 445.421 146.289 445.329 146.231C445.239 146.172 445.132 146.143 445.009 146.143C444.873 146.143 444.755 146.178 444.656 146.247C444.558 146.315 444.482 146.405 444.429 146.515C444.376 146.625 444.35 146.743 444.35 146.869V147.071C444.35 147.244 444.379 147.39 444.437 147.51C444.495 147.629 444.577 147.72 444.681 147.783C444.785 147.844 444.906 147.875 445.043 147.875C445.133 147.875 445.214 147.862 445.286 147.836C445.359 147.81 445.422 147.77 445.475 147.717C445.528 147.664 445.569 147.597 445.598 147.518L445.927 147.613C445.892 147.728 445.834 147.829 445.752 147.917C445.67 148.003 445.569 148.07 445.449 148.119C445.329 148.167 445.193 148.19 445.043 148.19Z" fill="black"/>
<path d="M446.48 148.143V145.857H446.809V146.214H446.838C446.884 146.092 446.959 145.998 447.062 145.93C447.165 145.862 447.289 145.827 447.433 145.827C447.579 145.827 447.701 145.862 447.798 145.93C447.897 145.998 447.973 146.092 448.028 146.214H448.051C448.108 146.096 448.193 146.002 448.307 145.933C448.42 145.863 448.557 145.827 448.715 145.827C448.914 145.827 449.076 145.891 449.202 146.019C449.328 146.146 449.391 146.344 449.391 146.613V148.143H449.051V146.613C449.051 146.444 449.006 146.324 448.916 146.251C448.827 146.179 448.721 146.143 448.6 146.143C448.444 146.143 448.323 146.191 448.237 146.289C448.152 146.385 448.109 146.507 448.109 146.655V148.143H447.762V146.577C447.762 146.447 447.721 146.343 447.64 146.263C447.558 146.183 447.452 146.143 447.323 146.143C447.235 146.143 447.152 146.167 447.075 146.216C446.999 146.264 446.937 146.332 446.89 146.418C446.844 146.503 446.821 146.602 446.821 146.714V148.143H446.48Z" fill="black"/>
<path d="M451.158 148.143V145.857H451.499V148.143H451.158ZM451.331 145.476C451.265 145.476 451.208 145.453 451.16 145.406C451.112 145.36 451.089 145.304 451.089 145.238C451.089 145.173 451.112 145.117 451.16 145.07C451.208 145.023 451.265 145 451.331 145C451.398 145 451.455 145.023 451.502 145.07C451.55 145.117 451.574 145.173 451.574 145.238C451.574 145.304 451.55 145.36 451.502 145.406C451.455 145.453 451.398 145.476 451.331 145.476Z" fill="black"/>
<path d="M452.123 149V145.857H452.452V146.22H452.493C452.518 146.181 452.553 146.13 452.597 146.068C452.642 146.006 452.707 145.95 452.79 145.902C452.875 145.852 452.99 145.827 453.134 145.827C453.321 145.827 453.485 145.875 453.628 145.972C453.77 146.068 453.882 146.204 453.961 146.381C454.041 146.558 454.081 146.766 454.081 147.006C454.081 147.248 454.041 147.458 453.961 147.635C453.882 147.812 453.771 147.949 453.629 148.046C453.488 148.142 453.325 148.19 453.14 148.19C452.997 148.19 452.883 148.166 452.798 148.118C452.712 148.068 452.646 148.012 452.6 147.949C452.554 147.886 452.518 147.833 452.493 147.792H452.464V149H452.123ZM452.458 147C452.458 147.173 452.483 147.325 452.532 147.457C452.581 147.588 452.653 147.69 452.747 147.765C452.841 147.838 452.957 147.875 453.094 147.875C453.236 147.875 453.355 147.836 453.45 147.759C453.547 147.681 453.619 147.575 453.667 147.443C453.716 147.311 453.741 147.163 453.741 147C453.741 146.839 453.716 146.694 453.668 146.565C453.621 146.436 453.549 146.333 453.453 146.257C453.358 146.181 453.238 146.143 453.094 146.143C452.955 146.143 452.838 146.179 452.744 146.251C452.65 146.323 452.579 146.423 452.53 146.552C452.482 146.68 452.458 146.829 452.458 147Z" fill="black"/>
<path d="M456.172 146.369L455.866 146.458C455.847 146.406 455.819 146.355 455.781 146.305C455.744 146.254 455.694 146.213 455.631 146.18C455.567 146.147 455.486 146.131 455.387 146.131C455.251 146.131 455.138 146.163 455.047 146.228C454.958 146.291 454.913 146.372 454.913 146.47C454.913 146.558 454.944 146.626 455.006 146.677C455.067 146.728 455.163 146.77 455.294 146.804L455.624 146.887C455.822 146.937 455.97 147.012 456.067 147.115C456.164 147.216 456.213 147.346 456.213 147.506C456.213 147.637 456.176 147.754 456.103 147.857C456.031 147.96 455.93 148.042 455.8 148.101C455.67 148.161 455.519 148.19 455.346 148.19C455.12 148.19 454.933 148.14 454.785 148.039C454.636 147.937 454.542 147.79 454.503 147.595L454.826 147.512C454.857 147.635 454.916 147.727 455.001 147.789C455.088 147.85 455.201 147.881 455.341 147.881C455.499 147.881 455.626 147.846 455.719 147.777C455.813 147.706 455.86 147.622 455.86 147.524C455.86 147.444 455.834 147.378 455.78 147.324C455.726 147.27 455.643 147.229 455.531 147.202L455.162 147.113C454.958 147.063 454.809 146.987 454.714 146.882C454.62 146.777 454.572 146.646 454.572 146.488C454.572 146.359 454.607 146.245 454.678 146.146C454.749 146.047 454.846 145.969 454.968 145.912C455.091 145.856 455.231 145.827 455.387 145.827C455.606 145.827 455.779 145.877 455.904 145.976C456.03 146.075 456.119 146.206 456.172 146.369Z" fill="black"/>
<path d="M458.124 147.208V145.857H458.465V148.143H458.124V147.756H458.101C458.049 147.872 457.968 147.971 457.858 148.052C457.748 148.132 457.61 148.173 457.442 148.173C457.303 148.173 457.18 148.141 457.072 148.079C456.965 148.015 456.88 147.92 456.818 147.793C456.757 147.665 456.726 147.504 456.726 147.31V145.857H457.067V147.286C457.067 147.452 457.112 147.585 457.202 147.685C457.294 147.784 457.41 147.833 457.552 147.833C457.637 147.833 457.723 147.811 457.81 147.766C457.899 147.722 457.973 147.653 458.033 147.561C458.093 147.469 458.124 147.351 458.124 147.208Z" fill="black"/>
<path d="M459.089 148.143V145.857H459.418V146.214H459.447C459.493 146.092 459.568 145.998 459.671 145.93C459.774 145.862 459.897 145.827 460.042 145.827C460.188 145.827 460.31 145.862 460.407 145.93C460.505 145.998 460.582 146.092 460.637 146.214H460.66C460.717 146.096 460.802 146.002 460.915 145.933C461.029 145.863 461.165 145.827 461.324 145.827C461.522 145.827 461.685 145.891 461.811 146.019C461.937 146.146 462 146.344 462 146.613V148.143H461.659V146.613C461.659 146.444 461.614 146.324 461.525 146.251C461.435 146.179 461.33 146.143 461.209 146.143C461.053 146.143 460.932 146.191 460.846 146.289C460.76 146.385 460.718 146.507 460.718 146.655V148.143H460.371V146.577C460.371 146.447 460.33 146.343 460.248 146.263C460.166 146.183 460.061 146.143 459.932 146.143C459.843 146.143 459.761 146.167 459.684 146.216C459.608 146.264 459.546 146.332 459.499 146.418C459.453 146.503 459.43 146.602 459.43 146.714V148.143H459.089Z" fill="black"/>
</svg>
